<svg width="28" height="17" viewBox="0 0 28 17" fill="none" xmlns="http://www.w3.org/2000/svg">
<path d="M13.6828 7.29612C15.7068 7.29612 17.3338 5.65975 17.3338 3.64866C17.3362 1.63168 15.7068 0 13.6828 0C11.6729 0 10.0413 1.63168 10.0413 3.64866C10.0413 5.66215 11.6729 7.29612 13.6828 7.29612Z" fill="#B8A5FF"/>
<path d="M16.6116 7.89062H10.7639C9.71842 7.89062 8.86206 8.8492 8.86206 10.0251V15.8986C8.86206 15.9632 8.89495 16.0208 8.89849 16.0878H18.4735C18.4806 16.0208 18.5076 15.9633 18.5076 15.8986V10.0251C18.5111 8.8492 17.6547 7.89062 16.6116 7.89062Z" fill="#B8A5FF"/>
<path d="M23.5037 9.03714C25.1283 9.03714 26.431 7.7297 26.431 6.11447C26.431 4.49923 25.1283 3.18945 23.5037 3.18945C21.8908 3.18945 20.5857 4.49923 20.5857 6.11447C20.5822 7.72856 21.8908 9.03714 23.5037 9.03714Z" fill="#B8A5FF"/>
<path d="M25.8517 9.51416H21.1658C20.3247 9.51416 19.6375 10.2824 19.6375 11.2281V15.934C19.6375 15.9845 19.6621 16.0327 19.6657 16.0879H27.3459C27.3495 16.0327 27.3729 15.9845 27.3729 15.934V11.2281C27.3765 10.2824 26.6905 9.51416 25.8517 9.51416Z" fill="#B8A5FF"/>
<path d="M3.86713 9.03714C5.48939 9.03714 6.79334 7.7297 6.79334 6.11447C6.79334 4.49923 5.48939 3.18945 3.86713 3.18945C2.25309 3.18945 0.947998 4.49923 0.947998 6.11447C0.947998 7.7297 2.25309 9.03714 3.86713 9.03714Z" fill="#B8A5FF"/>
<path d="M6.21419 9.51416H1.52358C0.684869 9.51416 0 10.2824 0 11.2281V15.934C0 15.9845 0.0246696 16.0327 0.0293531 16.0879H7.70962C7.71316 16.0327 7.73549 15.9845 7.73549 15.934V11.2281C7.73783 10.2824 7.05176 9.51416 6.21419 9.51416Z" fill="#B8A5FF"/>
</svg>
