<svg width="20" height="24" viewBox="0 0 20 24" fill="none" xmlns="http://www.w3.org/2000/svg">
<path d="M17.0001 0.333496C18.6109 0.333496 19.9167 1.63933 19.9167 3.25016V19.8752C19.9167 20.3584 19.525 20.7502 19.0417 20.7502H2.41675C2.41675 21.3945 2.93909 21.9168 3.58341 21.9168H19.0417C19.525 21.9168 19.9167 22.3086 19.9167 22.7918C19.9167 23.2751 19.525 23.6668 19.0417 23.6668H3.58341C1.97259 23.6668 0.666748 22.361 0.666748 20.7502V3.25016C0.666748 1.63933 1.97259 0.333496 3.58341 0.333496H17.0001ZM13.2084 11.4168H7.37508C6.89184 11.4168 6.50008 11.8086 6.50008 12.2918V12.8746C6.50008 14.0418 8.1137 14.9168 10.2917 14.9168C12.4697 14.9168 14.0834 14.0418 14.0834 12.8746V12.2918C14.0834 11.8086 13.6916 11.4168 13.2084 11.4168ZM10.2917 6.16683C9.16381 6.16683 8.25008 7.07523 8.25008 8.20321C8.25008 9.33119 9.16381 10.2456 10.2917 10.2456C11.4197 10.2456 12.3334 9.33119 12.3334 8.20321C12.3334 7.07523 11.4197 6.16683 10.2917 6.16683Z" fill="#B8A5FF"/>
</svg>
