<svg width="26" height="26" viewBox="0 0 26 26" fill="none" xmlns="http://www.w3.org/2000/svg">
<path d="M12.1711 2.57167C11.7729 2.73659 11.4159 3.09354 10.7021 3.80737C9.98845 4.52105 9.63135 4.87815 9.46644 5.27626C9.24654 5.80716 9.24654 6.40373 9.46644 6.93462C9.63137 7.3328 9.9883 7.68972 10.7021 8.40358C11.4156 9.11702 11.773 9.47441 12.171 9.63929C12.7019 9.85919 13.2985 9.85919 13.8294 9.63928C14.2276 9.47435 14.5845 9.11743 15.2984 8.40358C16.0122 7.68972 16.3681 7.3328 16.533 6.93462C16.7529 6.40373 16.7529 5.80716 16.533 5.27626C16.3681 4.87809 16.0122 4.52122 15.2984 3.80737C14.5845 3.09353 14.2276 2.73659 13.8294 2.57167C13.2985 2.35176 12.7019 2.35176 12.1711 2.57167Z" stroke="#4F4F4F" stroke-width="2" stroke-linecap="round" stroke-linejoin="round"/>
<path d="M5.27654 9.46571C4.87837 9.63064 4.52143 9.98757 3.80759 10.7014C3.09394 11.4151 2.73682 11.7722 2.57191 12.1703C2.35201 12.7012 2.35201 13.2978 2.57191 13.8286C2.73684 14.2269 3.09378 14.5838 3.80762 15.2976C4.52107 16.0111 4.87845 16.3684 5.27651 16.5333C5.80741 16.7532 6.40398 16.7532 6.93486 16.5333C7.33304 16.3684 7.68997 16.0114 8.40382 15.2976C9.11767 14.5838 9.47355 14.2269 9.63847 13.8286C9.85838 13.2978 9.85838 12.7012 9.63847 12.1703C9.47355 11.7721 9.11767 11.4153 8.40382 10.7014C7.68997 9.98756 7.33304 9.63064 6.93486 9.46571C6.40398 9.2458 5.80744 9.2458 5.27654 9.46571Z" stroke="#4F4F4F" stroke-width="2" stroke-linecap="round" stroke-linejoin="round"/>
<path d="M17.5967 10.7014C16.883 11.4151 16.526 11.7721 16.361 12.1703C16.1411 12.7012 16.1411 13.2978 16.361 13.8286C16.526 14.2269 16.8829 14.5837 17.5967 15.2976C18.3101 16.011 18.6676 16.3684 19.0656 16.5333C19.5965 16.7532 20.1931 16.7532 20.724 16.5333C21.1221 16.3684 21.4791 16.0114 22.1929 15.2976C22.9068 14.5838 23.2627 14.2269 23.4276 13.8286C23.6475 13.2978 23.6475 12.7012 23.4276 12.1703C23.2627 11.7721 22.9068 11.4153 22.1929 10.7014C21.4791 9.98757 21.1221 9.63064 20.724 9.46571C20.1931 9.2458 19.5966 9.2458 19.0656 9.46571C18.6675 9.63064 18.3105 9.98757 17.5967 10.7014Z" stroke="#4F4F4F" stroke-width="2" stroke-linecap="round" stroke-linejoin="round"/>
<path d="M12.1711 16.3602C11.7729 16.5252 11.4159 16.8821 10.7021 17.5959C9.98846 18.3096 9.63135 18.6667 9.46644 19.0648C9.24654 19.5958 9.24654 20.1922 9.46644 20.7232C9.63137 21.1213 9.9883 21.4783 10.7021 22.1921C11.4156 22.9056 11.773 23.263 12.171 23.4278C12.7019 23.6478 13.2985 23.6478 13.8294 23.4278C14.2276 23.263 14.5845 22.906 15.2984 22.1921C16.0122 21.4783 16.3681 21.1213 16.533 20.7232C16.7529 20.1922 16.7529 19.5958 16.533 19.0648C16.3681 18.6667 16.0122 18.3097 15.2984 17.5959C14.5845 16.8821 14.2276 16.5252 13.8294 16.3602C13.2985 16.1404 12.7019 16.1404 12.1711 16.3602Z" stroke="#4F4F4F" stroke-width="2" stroke-linecap="round" stroke-linejoin="round"/>
</svg>
