<svg width="34" height="34" viewBox="0 0 34 34" fill="none" xmlns="http://www.w3.org/2000/svg">
<path d="M23.0729 8.07129H3.896V28.7622H9.23346V22.0308H19.4611L24.1276 28.7622H30.1042L24.9585 21.9998C26.5566 21.7517 27.7072 21.1622 28.4104 20.2316C29.1134 19.301 29.4651 17.8119 29.4651 15.8267V14.2756C29.4651 13.0967 29.3374 12.1662 29.1135 11.4527C28.8897 10.7392 28.5062 10.1187 27.9629 9.56038C27.3875 9.03303 26.7484 8.6608 25.9813 8.41271C25.2142 8.1956 24.2553 8.07129 23.0729 8.07129ZM22.21 17.4709H9.23346V12.6314H22.21C22.9449 12.6314 23.4563 12.7553 23.712 12.9726C23.9677 13.1897 24.1276 13.5929 24.1276 14.1824V15.9196C24.1276 16.5399 23.9677 16.9432 23.712 17.1603C23.4563 17.3774 22.945 17.4705 22.21 17.4705V17.4709Z" stroke="#B8A5FF" stroke-width="2.125" stroke-linecap="round" stroke-linejoin="round"/>
<path d="M29.029 7.71696C30.0065 7.71696 30.7995 6.92416 30.7995 5.94613C30.7995 4.9681 30.0065 4.17529 29.029 4.17529C28.0508 4.17529 27.2578 4.9681 27.2578 5.94613C27.2578 6.92416 28.0508 7.71696 29.029 7.71696Z" fill="#B8A5FF"/>
</svg>
