<svg width="31" height="31" viewBox="0 0 31 31" fill="none" xmlns="http://www.w3.org/2000/svg">
<path d="M26.75 4.72055C26.75 4.72055 29.2592 3.74211 29.0501 6.11832C28.9804 7.09677 28.3531 10.5213 27.8652 14.2254L26.1924 25.1979C26.1924 25.1979 26.053 26.8053 24.7983 27.0849C23.5437 27.3644 21.6618 26.1065 21.3132 25.8269C21.0344 25.6173 16.0856 22.4723 14.3431 20.9347C13.8551 20.5154 13.2975 19.6767 14.4127 18.6983L21.7315 11.7094C22.5679 10.8708 23.4043 8.91389 19.9192 11.2901L10.161 17.9295C10.161 17.9295 9.04574 18.6284 6.95472 17.9994L2.42408 16.6016C2.42408 16.6016 0.75124 15.5533 3.60901 14.5049C10.5792 11.2202 19.1525 7.86551 26.75 4.72055Z" fill="#B8A5FF"/>
</svg>
