<svg width="38" height="38" viewBox="0 0 38 38" fill="none" xmlns="http://www.w3.org/2000/svg">
<path d="M22.6373 18.7032C22.0436 18.4799 22.0436 17.6273 22.0068 17.0335C21.8583 14.9186 22.6005 11.6898 21.7099 10.3171C21.0793 9.50005 18.0358 9.57486 16.1809 9.68649C15.6608 9.7613 15.0302 9.87174 14.5849 10.095C14.1396 10.3182 13.6943 10.6887 13.6943 11.0224C13.6943 11.5045 14.8082 11.4309 15.2155 12.0615C15.6608 12.73 15.6608 14.1764 15.6608 15.3639C15.6608 16.7367 15.4375 18.5559 14.8818 18.6295C14.028 18.6664 13.5458 17.8125 13.1005 17.182C12.2099 15.9577 11.3193 14.4353 10.6507 12.9509C10.317 12.1719 10.1306 11.3181 9.64846 10.9844C8.90628 10.4643 7.57034 10.4275 6.27121 10.4643C5.08371 10.5011 3.37609 10.3527 3.0424 11.0581C2.78234 11.8371 3.33928 12.5792 3.63615 13.211C5.15734 16.5134 6.79015 19.4085 8.79465 22.154C10.6507 24.7143 12.394 26.7556 15.808 27.8315C16.7735 28.1284 21.0033 28.9822 21.8572 27.8315C22.154 27.3862 22.0804 26.3839 22.2288 25.6417C22.3773 24.8995 22.5625 24.1574 23.2679 24.1205C23.8617 24.0837 24.1953 24.6027 24.567 24.9744C24.9755 25.3829 25.3092 25.7165 25.6061 26.0882C26.3115 26.7936 27.0536 27.7579 27.9443 28.1295C29.1686 28.6497 31.0615 28.5012 32.8427 28.4264C34.2903 28.3896 35.3293 28.0927 35.441 27.2389C35.5158 26.5704 34.7724 25.6061 34.3271 25.0492C33.2132 23.6764 32.6943 23.2679 31.432 22.0056C30.875 21.4487 30.1697 20.8549 30.1697 20.1875C30.1328 19.779 30.4665 19.4085 30.7634 19C32.0625 17.0704 33.3617 15.6976 34.5492 13.6931C34.8828 13.0994 35.663 11.7266 35.3661 11.0581C35.0325 10.3159 33.1764 10.5379 32.0257 10.5379C30.5413 10.5379 28.6117 10.4263 28.24 10.7232C27.5346 11.2053 27.2377 11.9855 26.904 12.7277C26.1618 14.4353 25.1596 16.1786 24.1205 17.4777C23.7488 17.923 23.0447 18.8504 22.6362 18.702L22.6373 18.7032Z" fill="#B8A5FF"/>
</svg>
